<?xml version="1.0" standalone="no"?>
<!DOCTYPE svg PUBLIC "-//W3C//DTD SVG 20010904//EN"
 "http://www.w3.org/TR/2001/REC-SVG-20010904/DTD/svg10.dtd">
<svg version="1.0" xmlns="http://www.w3.org/2000/svg"
 width="512.000000pt" height="512.000000pt" viewBox="0 0 512.000000 512.000000"
 preserveAspectRatio="xMidYMid meet">

<g transform="translate(0.000000,512.000000) scale(0.100000,-0.100000)"
fill="#000000" stroke="none">
<path d="M2405 5106 c-307 -60 -552 -257 -666 -536 l-32 -78 -61 -17 c-200
-56 -404 -201 -529 -376 -65 -91 -132 -237 -159 -345 -31 -125 -32 -341 -1
-464 12 -47 24 -92 28 -101 4 -12 -8 -25 -44 -48 -27 -18 -80 -65 -118 -104
-101 -106 -150 -208 -187 -389 -5 -20 -15 -29 -43 -38 -70 -23 -197 -94 -270
-152 -134 -106 -247 -276 -293 -440 -125 -437 163 -903 635 -1031 115 -31 318
-31 428 1 44 12 92 29 108 37 l29 16 0 -421 0 -420 -410 0 c-336 0 -416 -3
-439 -14 -66 -35 -66 -137 0 -172 42 -21 4316 -21 4358 0 66 35 66 137 0 172
-23 11 -103 14 -439 14 l-410 0 0 420 0 421 29 -16 c16 -8 64 -25 108 -37 110
-32 313 -32 429 -1 472 128 758 593 634 1033 -45 160 -161 333 -293 438 -73
58 -200 129 -270 152 -28 9 -38 18 -43 38 -37 181 -86 283 -187 389 -38 39
-91 86 -118 104 -36 23 -48 36 -44 48 47 121 66 347 41 489 -19 111 -27 127
-68 148 -54 28 -124 -2 -142 -61 -3 -11 1 -56 9 -99 25 -128 17 -258 -21 -377
l-15 -46 -42 8 c-103 20 -265 1 -369 -42 -155 -66 -287 -189 -361 -337 -25
-50 -50 -117 -57 -149 -6 -32 -13 -68 -15 -80 -3 -14 -17 -25 -42 -33 -110
-35 -297 -158 -366 -239 l-27 -33 0 410 0 409 208 98 c351 166 397 190 410
220 32 69 -15 145 -90 145 -13 0 -135 -54 -273 -120 l-250 -119 -5 387 c-3
213 -9 395 -14 405 -10 21 -57 47 -86 47 -29 0 -76 -26 -86 -47 -5 -10 -11
-125 -14 -255 l-5 -237 -250 119 c-137 66 -260 120 -273 120 -53 0 -102 -48
-102 -101 0 -59 18 -70 329 -219 l301 -144 0 -559 0 -559 -27 33 c-69 81 -256
204 -366 239 -28 9 -38 18 -43 38 -40 195 -85 284 -203 403 -72 72 -102 94
-181 133 -136 67 -290 91 -417 67 l-42 -8 -15 46 c-97 301 9 647 260 849 84
68 223 134 326 157 103 22 123 39 149 128 35 118 85 204 169 287 88 88 157
131 277 173 81 29 98 31 213 31 108 0 136 -4 205 -27 225 -75 389 -242 454
-464 26 -89 46 -105 149 -128 107 -24 132 -22 165 15 57 63 20 146 -75 170
-44 11 -45 13 -77 90 -104 255 -329 451 -600 521 -99 26 -282 33 -376 15z
m-973 -2057 c225 -47 398 -259 398 -488 0 -71 23 -95 124 -126 207 -63 360
-190 446 -371 128 -267 38 -589 -215 -769 -217 -155 -497 -176 -715 -54 -67
38 -60 53 104 219 87 88 147 156 151 173 19 76 -46 141 -122 122 -14 -3 -59
-38 -100 -77 l-73 -71 0 337 c0 366 -2 380 -55 404 -33 15 -57 15 -90 0 -51
-23 -55 -47 -55 -298 l0 -230 -240 120 c-132 66 -249 120 -260 120 -51 0 -100
-49 -100 -100 0 -57 16 -68 312 -216 l288 -144 0 -168 0 -169 -47 -26 c-101
-54 -178 -72 -308 -71 -102 0 -132 5 -200 27 -113 37 -198 90 -285 177 -190
189 -241 454 -132 691 81 178 241 312 449 375 100 30 123 54 123 125 0 223
165 432 383 485 66 16 152 17 219 3z m2460 0 c225 -47 398 -259 398 -488 0
-71 23 -95 124 -126 207 -63 360 -190 446 -371 128 -267 38 -589 -215 -769
-217 -155 -497 -176 -715 -54 l-40 23 0 168 0 168 288 144 c296 148 312 159
312 216 0 51 -49 100 -100 100 -11 0 -128 -54 -260 -120 l-240 -120 0 379 c0
409 -1 421 -51 447 -52 27 -115 8 -137 -41 -8 -17 -12 -89 -12 -212 l0 -186
-73 71 c-41 39 -86 74 -100 77 -76 19 -141 -46 -122 -122 4 -17 64 -85 151
-173 l144 -146 0 -325 0 -326 -47 -26 c-101 -54 -178 -72 -308 -71 -102 0
-132 5 -200 27 -113 37 -198 90 -285 177 -190 189 -241 454 -132 691 81 178
241 312 449 375 100 30 123 54 123 125 0 131 53 254 149 349 127 124 287 174
453 139z m-1432 -2314 l0 -535 -515 0 -515 0 0 420 0 421 29 -16 c16 -8 64
-25 108 -37 104 -30 312 -32 418 -4 160 43 316 130 420 236 27 27 51 50 52 50
2 0 3 -241 3 -535z m398 370 c155 -100 291 -139 482 -139 138 0 243 19 321 59
l29 16 0 -421 0 -420 -515 0 -515 0 0 537 0 536 63 -60 c35 -34 96 -82 135
-108z"/>
<path d="M3791 4216 c-87 -48 -50 -186 49 -186 51 0 100 49 100 99 0 75 -83
124 -149 87z"/>
</g>
</svg>
