<?xml version="1.0" standalone="no"?>
<!DOCTYPE svg PUBLIC "-//W3C//DTD SVG 20010904//EN"
 "http://www.w3.org/TR/2001/REC-SVG-20010904/DTD/svg10.dtd">
<svg version="1.0" xmlns="http://www.w3.org/2000/svg"
 width="512.000000pt" height="512.000000pt" viewBox="0 0 512.000000 512.000000"
 preserveAspectRatio="xMidYMid meet">

<g transform="translate(0.000000,512.000000) scale(0.100000,-0.100000)"
fill="#000000" stroke="none">
<path d="M2804 5032 c-337 -229 -632 -542 -814 -865 -27 -48 -42 -63 -89 -86
-78 -40 -251 -156 -341 -228 -172 -139 -372 -369 -490 -563 -170 -281 -282
-624 -306 -942 l-7 -88 -51 0 c-110 0 -192 -48 -238 -139 -27 -53 -28 -60 -28
-215 l0 -161 -220 -215 -221 -215 1 -333 c0 -354 3 -377 49 -402 11 -5 85 -10
165 -10 l146 0 0 -244 0 -243 25 -26 c34 -34 67 -40 110 -23 59 25 65 52 65
311 l0 225 295 0 295 0 0 -232 c0 -212 2 -236 19 -264 27 -45 79 -61 124 -39
19 9 39 27 46 41 7 16 11 105 11 259 l0 235 140 0 c155 0 187 9 208 55 9 18
12 122 12 358 l1 332 -221 215 -220 215 0 161 c0 152 -1 163 -26 212 -45 90
-132 142 -237 142 l-50 0 7 83 c17 213 88 463 191 674 105 217 215 373 380
539 90 91 264 238 272 230 2 -1 -8 -36 -22 -77 -33 -96 -69 -238 -91 -364 -14
-78 -18 -150 -18 -325 0 -201 3 -239 27 -360 125 -643 499 -1214 1046 -1600
l89 -63 4 -296 c4 -286 5 -299 30 -373 47 -141 110 -216 228 -272 62 -29 71
-31 185 -31 99 0 138 5 222 28 144 38 249 78 398 151 232 114 415 247 601 437
322 330 514 719 590 1194 25 155 26 487 1 644 -71 448 -264 846 -573 1180
-130 141 -359 317 -539 416 -67 36 -73 43 -126 134 -178 304 -490 627 -803
833 -116 77 -125 76 -252 -10z m238 -224 c279 -210 480 -429 648 -708 205
-339 312 -706 312 -1070 0 -540 -232 -1082 -646 -1509 -93 -94 -295 -271 -311
-271 -3 0 -5 226 -5 503 l0 502 283 210 c155 116 292 221 304 234 55 58 8 161
-73 161 -32 0 -65 -21 -263 -168 -124 -93 -232 -172 -238 -176 -10 -6 -13 48
-13 253 l0 261 295 221 c162 121 300 229 305 239 18 34 12 87 -14 117 -20 23
-32 28 -68 28 -42 0 -58 -10 -281 -178 l-237 -177 0 395 c0 421 -3 450 -48
474 -36 19 -89 13 -119 -13 l-28 -24 -5 -417 -5 -416 -225 169 c-124 93 -235
174 -247 181 -39 20 -73 13 -109 -23 -36 -36 -42 -67 -23 -109 6 -13 145 -124
310 -248 l299 -224 0 -257 c0 -142 -3 -258 -6 -258 -4 0 -112 79 -241 175
-212 159 -238 175 -274 175 -66 0 -114 -67 -93 -129 6 -18 103 -97 312 -254
l302 -227 0 -500 c0 -275 -3 -500 -8 -500 -18 0 -197 153 -302 259 -351 353
-583 817 -645 1286 -81 621 182 1305 689 1792 102 98 344 293 364 293 4 0 51
-33 104 -72z m1103 -1077 c84 -63 256 -232 328 -321 631 -781 587 -1894 -103
-2624 -233 -245 -545 -433 -885 -531 -236 -69 -358 -36 -416 112 -22 55 -23
74 -27 344 l-4 286 69 48 c375 266 660 597 853 990 273 556 317 1118 132 1667
-16 48 -24 85 -18 81 6 -4 38 -27 71 -52z m-3091 -1687 c13 -12 16 -39 16
-130 l0 -114 -215 0 -215 0 0 114 c0 91 3 118 16 130 13 13 45 16 199 16 154
0 186 -3 199 -16z m266 -626 l190 -183 0 -232 0 -233 -655 0 -655 0 0 233 0
232 187 182 188 182 278 0 278 1 189 -182z"/>
<path d="M590 1169 c-65 -26 -81 -110 -31 -160 l29 -29 267 0 267 0 29 29 c48
49 35 126 -26 156 -27 12 -76 15 -272 14 -131 0 -249 -5 -263 -10z"/>
</g>
</svg>
